<?xml version="1.0" encoding="utf-8"?>
<!-- Generator: Adobe Illustrator 19.0.0, SVG Export Plug-In . SVG Version: 6.00 Build 0)  -->
<svg version="1.1" id="Layer_1" xmlns="http://www.w3.org/2000/svg" xmlns:xlink="http://www.w3.org/1999/xlink" x="0px" y="0px"
	 viewBox="0 0 24 24" style="enable-background:new 0 0 24 24;" xml:space="preserve">
<style type="text/css">
	.st0{fill:#10B9FF;}
</style>
<g>
	<path class="st0" d="M23.4,11.7V8h-1.2L21.9,10h-0.1c0,0-0.1-2.2-0.4-2.8S20.5,5.2,19.6,5H8.7C7.8,5.2,7.3,5.9,6.9,7.1
		C6.8,7.8,6.6,10,6.6,10H6.4L6.1,8H4.9v3.7h1.3c0,0-0.1,0.6-0.1,1.3l-0.1,2.2v3.2h0.3V19H5.7l0.1,2h1.3c0,0.1,0,0.1,0,0.3
		c0,1,0.6,1.9,1.4,1.9s1.4-0.9,1.4-1.9c0-0.1,0-0.1,0-0.3h8.7c0,0.1,0,0.1,0,0.3c0,1,0.6,1.9,1.4,1.9s1.4-0.9,1.4-1.9
		c0-0.1,0-0.1,0-0.3h1.4l0.1-2h-0.6v-0.6h0.3v-3.2l-0.3-2c-0.1-0.6-0.1-1.3-0.1-1.3v-0.1H23.4z M8.9,18.9c-0.8,0-1.3-0.5-1.3-1.3
		s0.5-1.3,1.3-1.3s1.3,0.5,1.3,1.3S9.6,18.9,8.9,18.9z M16.4,19.9h-3.8c-0.3,0-0.4-0.1-0.5-0.3c-0.1-0.3,0-0.4,0.1-0.6l2.4-2.9h-2.6
		v-1h3.8c0.3,0,0.4,0.1,0.5,0.3c0.1,0.3,0,0.4-0.1,0.6l-2.4,2.9h2.6V19.9z M19.6,18.9c-0.8,0-1.3-0.5-1.3-1.3s0.5-1.3,1.3-1.3
		s1.3,0.5,1.3,1.3S20.4,18.9,19.6,18.9z M7.2,13.9l1-5.6h11.9l1.2,5.6H7.2z"/>
	<rect x="0.6" y="0.7" class="st0" width="0.8" height="20.3"/>
	<rect x="2" y="0.7" class="st0" width="5.8" height="2.8"/>
</g>
</svg>
