<?xml version="1.0" encoding="utf-8"?>
<!-- Generator: Adobe Illustrator 19.0.0, SVG Export Plug-In . SVG Version: 6.00 Build 0)  -->
<svg version="1.1" id="Layer_1" xmlns="http://www.w3.org/2000/svg" xmlns:xlink="http://www.w3.org/1999/xlink" x="0px" y="0px"
	 viewBox="0 0 24 24" style="enable-background:new 0 0 24 24;" xml:space="preserve">
<style type="text/css">
	.st0{fill:#10B9FF;}
</style>
<g>
	<path class="st0" d="M24,22.1c0-0.2-0.1-0.4-0.2-0.6l0,0l0,0l-2.5-4.4l-5.4-9.3c-0.1-0.3-0.5-0.5-0.8-0.5c-0.4,0-0.6,0.2-0.9,0.7
		L10,15.2l-3.6,6.3c-0.1,0.1-0.2,0.4-0.2,0.4v0.2c0,0.4,0.3,0.8,0.7,0.9l0,0H23h0.1C23.6,23,24,22.6,24,22.1z M20.3,19.9
		c0,0.3-0.2,0.5-0.5,0.5l0,0h-9.6l0,0c-0.2-0.1-0.4-0.3-0.4-0.5c0-0.1,0-0.1,0-0.1l0.1-0.2L12,16l2.5-4.3c0.1-0.3,0.3-0.4,0.5-0.4
		s0.4,0.1,0.5,0.3l3.2,5.5l1.5,2.6l0,0l0,0C20.2,19.7,20.3,19.8,20.3,19.9z"/>
	<rect x="14.5" y="12.7" class="st0" width="1.1" height="5.4"/>
	<rect x="14.5" y="18.8" class="st0" width="1.1" height="1.2"/>
	<g>
		<path class="st0" d="M9.8,18.6H1.5c-0.5,0-0.9-0.2-1.2-0.7c0-0.5,0-0.9,0.2-1.2L6,10.3H0.3V7.9h8.3c0.5,0,0.9,0.2,1.2,0.7
			c0,0.5,0,0.9-0.2,1.2l-5.4,6.4h5.7V18.6z"/>
		<path class="st0" d="M12,1C6.6,1,2.1,4.7,0.7,9.6h2.1c0.5-1.6,1.5-3,2.7-4.1l0.8-0.6C7.9,3.7,9.9,3,12,3s4.1,0.7,5.7,1.9l0.8,0.7
			c1.2,1.1,2.2,2.5,2.7,4.1h2.1C21.9,4.7,17.4,1,12,1z"/>
	</g>
</g>
</svg>
