<?xml version="1.0" encoding="utf-8"?>
<!-- Generator: Adobe Illustrator 19.0.0, SVG Export Plug-In . SVG Version: 6.00 Build 0)  -->
<svg version="1.1" id="Layer_1" xmlns="http://www.w3.org/2000/svg" xmlns:xlink="http://www.w3.org/1999/xlink" x="0px" y="0px"
	 viewBox="0 0 24 24" style="enable-background:new 0 0 24 24;" xml:space="preserve">
<style type="text/css">
	.st0{fill:#10B9FF;}
</style>
<path class="st0" d="M20,5.5l1.2,1.1l1.3-1.4l-3.3-2.9l-1.3,1.4l1.2,1.1l-0.7,0.8c-1.7-1.2-3.6-2-5.8-2.1V2.6h2.3V0H9.1v2.6h2.3v0.9
	C9.3,3.6,7.4,4.4,5.8,5.7L4.9,4.6l1.2-1.1L4.8,2.1L1.5,5.2l1.3,1.4L4,5.5l0.8,0.9C3.1,8.4,2,10.8,2,13.5c0,5.7,4.6,10.2,10.2,10.2
	c5.7,0,10.2-4.6,10.2-10.2c0-2.8-1.2-5.4-2.9-7.2L20,5.5z M16.7,18.1h-0.2H8.4c-0.5,0-0.7-0.2-1-0.7s0-1,0.2-1.2l5.1-6.1H7.4V7.8
	h8.1c0.5,0,0.7,0.2,1,0.7c0.2,0.5,0,1-0.2,1.2l-5.1,6.1h5.6V18.1z"/>
</svg>
