<?xml version="1.0" encoding="utf-8"?>
<!-- Generator: Adobe Illustrator 19.0.0, SVG Export Plug-In . SVG Version: 6.00 Build 0)  -->
<svg version="1.1" id="Layer_1" xmlns="http://www.w3.org/2000/svg" xmlns:xlink="http://www.w3.org/1999/xlink" x="0px" y="0px"
	 viewBox="0 0 24 24" style="enable-background:new 0 0 24 24;" xml:space="preserve">
<style type="text/css">
	.st0{fill:#10B9FF;}
</style>
<g>
	<g>
		<path class="st0" d="M15.5,23.4H9.4c-0.4,0-0.6-0.2-0.7-0.6c-0.2-0.4,0-0.7,0.2-0.9l3.9-4.6H8.5v-1.7h6.1c0.4,0,0.6,0.2,0.7,0.6
			c0.2,0.4,0,0.7-0.2,0.9l-3.9,4.6h4.3C15.5,21.7,15.5,23.4,15.5,23.4z"/>
	</g>
	<g>
		<polygon class="st0" points="0,21.5 10.4,12.2 10.8,12.2 2.9,21.5 		"/>
		<polygon class="st0" points="24,21.5 13.6,12.2 13.2,12.2 21.1,21.5 		"/>
		<polygon class="st0" points="12.4,12.2 11.8,12.2 11.7,13.2 12.5,13.2 		"/>
		<polygon class="st0" points="12.5,13.8 11.6,13.8 11.5,15 12.6,15 		"/>
	</g>
	<path class="st0" d="M24,19.9v-8l-3.3-1.4l-1,1l-2.4-2.2L19,6.4l-3.4-5.8H8.8L5.4,6.5l1.7,2.9l-2.8,2.2l-1-1L0,12v8l9.3-7.6h5.5
		L24,19.9z M9.2,1.4h5.9L18,6.5l-2.7,4.6L15,11.6H9.2L6.3,6.5L9.2,1.4z"/>
	<polygon class="st0" points="15,6.5 10.4,3.2 10.4,9.7 	"/>
</g>
</svg>
