<?xml version="1.0" encoding="utf-8"?>
<!-- Generator: Adobe Illustrator 19.0.0, SVG Export Plug-In . SVG Version: 6.00 Build 0)  -->
<svg version="1.1" id="Layer_1" xmlns="http://www.w3.org/2000/svg" xmlns:xlink="http://www.w3.org/1999/xlink" x="0px" y="0px"
	 viewBox="0 0 24 24" style="enable-background:new 0 0 24 24;" xml:space="preserve">
<style type="text/css">
	.st0{fill:#10B9FF;}
	.st1{fill:none;stroke:#10B9FF;stroke-miterlimit:10;}
</style>
<g>
	<path class="st0" d="M23.3,17.8h-9.7c-0.5,0-1-0.3-1.3-0.8c-0.3-0.5-0.3-1.3,0-1.5l6.4-7.4h-6.6V5.3h9.7c0.5,0,1,0.3,1.3,0.8
		c0.3,0.5,0.3,1-0.3,1.5L16.4,15h6.6v2.8H23.3z"/>
</g>
<g>
	<polygon class="st0" points="0.6,5.3 4,10.4 0.6,15.3 3.8,15.3 7.1,10.5 3.5,5.3 	"/>
	<polygon class="st0" points="6,7.6 7.6,9.7 10.7,5.3 7.6,5.3 	"/>
	<polygon class="st0" points="6,13 7.6,10.9 10.7,15.3 7.7,15.3 	"/>
</g>
<polyline class="st1" points="0.6,17.8 10.7,17.8 10.7,20.2 23.3,20.2 "/>
</svg>
