<?xml version="1.0" encoding="utf-8"?>
<!-- Generator: Adobe Illustrator 19.0.0, SVG Export Plug-In . SVG Version: 6.00 Build 0)  -->
<svg version="1.1" id="Layer_1" xmlns="http://www.w3.org/2000/svg" xmlns:xlink="http://www.w3.org/1999/xlink" x="0px" y="0px"
	 viewBox="0 0 24 24" style="enable-background:new 0 0 24 24;" xml:space="preserve">
<style type="text/css">
	.st0{fill:#10B9FF;}
</style>
<path class="st0" d="M10,21.3H1.3c-0.5,0-0.9-0.2-1.3-0.7c0-0.5,0-0.9,0.2-1.3L6,12.6H0v-2.5h8.7c0.5,0,0.9,0.2,1.3,0.7
	c0,0.5,0,0.9-0.2,1.3l-5.7,6.7h6L10,21.3L10,21.3z"/>
<g>
	<path class="st0" d="M12.1,8.6L7.5,8.5L5.6,7.1l0.2-5.3l1.7-1.8h5.3l-0.1,1.6l5.6,0.1c0,0,2.4-0.1,5.6,3.7c0,0,0.8,1.4-2,2.5
		l-4.1-0.1l0,6.4l1.6,0L19.2,23c0,0-0.5,1-1.8,1c-1.2,0-3.5,0-3.5,0s-1.4-0.3-1.4-1.3c0-1,0.2-8.2,0.2-8.2l1.2,0l0-6.6l-1.7-0.1
		L12.1,8.6z"/>
</g>
</svg>
