<?xml version="1.0" encoding="utf-8"?>
<!-- Generator: Adobe Illustrator 19.0.0, SVG Export Plug-In . SVG Version: 6.00 Build 0)  -->
<svg version="1.1" id="Layer_1" xmlns="http://www.w3.org/2000/svg" xmlns:xlink="http://www.w3.org/1999/xlink" x="0px" y="0px"
	 viewBox="0 0 24 24" style="enable-background:new 0 0 24 24;" xml:space="preserve">
<style type="text/css">
	.st0{fill:#10B9FF;}
</style>
<g>
	<g>
		<g>
			<rect x="16.1" y="7.3" class="st0" width="2.9" height="2.7"/>
			<rect x="13.4" y="16.3" class="st0" width="5.7" height="1.7"/>
			<rect x="13.4" y="12.3" class="st0" width="5.7" height="1.7"/>
			<polygon class="st0" points="20.5,0 6.3,0 5.2,0 5.2,6.5 7.3,6.5 7.3,2.2 19.3,2.2 19.3,5 21.9,5 21.9,21.8 7.3,21.8 7.3,19.8 
				5.2,19.8 5.2,24 23,24 24,24 24,3.7 			"/>
		</g>
	</g>
</g>
<g>
	<path class="st0" d="M0.1,6.5v13.3h13.3V6.5H0.1z M10.3,17.1L10.3,17.1H4.1c-0.4,0-0.7-0.1-0.9-0.5c0-0.4,0-0.7,0.1-0.9l4-4.7H3.2
		V9.2h6.1c0.4,0,0.7,0.1,0.9,0.5c0,0.4,0,0.7-0.1,0.9l-4,4.7h4.2V17.1z"/>
</g>
</svg>
