<?xml version="1.0" encoding="utf-8"?>
<!-- Generator: Adobe Illustrator 19.0.0, SVG Export Plug-In . SVG Version: 6.00 Build 0)  -->
<svg version="1.1" id="Layer_1" xmlns="http://www.w3.org/2000/svg" xmlns:xlink="http://www.w3.org/1999/xlink" x="0px" y="0px"
	 viewBox="0 0 24 24" style="enable-background:new 0 0 24 24;" xml:space="preserve">
<style type="text/css">
	.st0{fill:#10B9FF;}
	.st1{fill:none;stroke:#10B9FF;stroke-miterlimit:10;}
</style>
<g>
	<path class="st0" d="M23.4,15.7L23.4,15.7L23.4,15.7L23.4,15.7l0-0.2c0.2-0.1,0.3-0.2,0.3-0.4v-0.1c0-0.2-0.1-0.4-0.3-0.4l0-0.4
		c0-0.6-0.4-1.1-0.9-1.3l-1.3-0.5l-2.7-3.9c-0.1-0.2-0.3-0.3-0.6-0.3l-3,0c-0.7,0-1.2,0.6-1.2,1.2l0,4.5H0.9v1.8
		c-0.4,0-0.6,0.3-0.6,0.6v0.1c0,0.4,0.3,0.6,0.6,0.6v0c0,0.5,0.4,0.9,0.9,0.9h1.9c0.1-1.4,1.3-2.5,2.7-2.5c1.4,0,2.6,1.1,2.7,2.5
		h6.6c0.1-1.4,1.3-2.5,2.7-2.5c1.4,0,2.6,1.1,2.7,2.5h1.2c0.5,0,0.9-0.4,0.9-0.9v0h0c0.4,0,0.6-0.3,0.6-0.6v-0.1
		C24,15.9,23.7,15.7,23.4,15.7z M19.2,12.7l-3.8,0c-0.4,0-0.7-0.3-0.7-0.7v-0.1l0-2c0-0.4,0.3-0.7,0.7-0.7l1.9,0
		c0.1,0,0.2,0.1,0.3,0.1l0.7,1l1.2,1.7c0,0.1,0.1,0.1,0.1,0.2C19.6,12.5,19.4,12.7,19.2,12.7z"/>
	<path class="st1" d="M11.3,3.8c2.4,0,2.3,2.4,2.3,2.4l0,7.8H0.9V6.2c0,0-0.1-2.4,2.3-2.4H11.3z"/>
	<path class="st0" d="M10.8,12.8H4.7c-0.3,0-0.6-0.2-0.8-0.5c-0.2-0.3-0.2-0.8,0-1l4-4.7H3.7V4.9h6.1c0.3,0,0.6,0.2,0.8,0.5
		c0.2,0.3,0.2,0.6-0.2,1l-4,4.7h4.2v1.8H10.8z"/>
	<g>
		<path class="st0" d="M6.6,15.8c-1.2,0-2.1,0.9-2.2,2c0,0.1,0,0.1,0,0.2c0,1.2,1,2.2,2.2,2.2c1.2,0,2.2-1,2.2-2.2
			c0-0.1,0-0.1,0-0.2C8.7,16.6,7.8,15.8,6.6,15.8z M6.6,18.9c-0.5,0-1-0.4-1-1c0-0.1,0-0.1,0-0.2C5.8,17.3,6.1,17,6.6,17
			c0.5,0,0.8,0.3,0.9,0.8c0,0.1,0,0.1,0,0.2C7.6,18.5,7.1,18.9,6.6,18.9z"/>
		<path class="st0" d="M20.8,17.7c-0.1-1.1-1-2-2.2-2c-1.1,0-2.1,0.9-2.2,2c0,0.1,0,0.2,0,0.2c0,1.2,1,2.2,2.2,2.2
			c1.2,0,2.2-1,2.2-2.2C20.9,17.9,20.9,17.8,20.8,17.7z M18.7,18.9c-0.5,0-1-0.4-1-1c0-0.1,0-0.2,0-0.2c0.1-0.4,0.5-0.7,0.9-0.7
			c0.4,0,0.8,0.3,0.9,0.7c0,0.1,0,0.1,0,0.2C19.6,18.5,19.2,18.9,18.7,18.9z"/>
	</g>
</g>
</svg>
