<?xml version="1.0" encoding="utf-8"?>
<!-- Generator: Adobe Illustrator 19.0.0, SVG Export Plug-In . SVG Version: 6.00 Build 0)  -->
<svg version="1.1" id="Layer_1" xmlns="http://www.w3.org/2000/svg" xmlns:xlink="http://www.w3.org/1999/xlink" x="0px" y="0px"
	 viewBox="0 0 24 24" style="enable-background:new 0 0 24 24;" xml:space="preserve">
<style type="text/css">
	.st0{fill:#10B9FF;}
	.st1{fill:none;stroke:#10B9FF;stroke-width:1.3;stroke-miterlimit:10;}
</style>
<g>
	<path class="st0" d="M15.1,1.7h-0.2H9.1H9.1H8.9c-0.4,0-0.7,0.3-0.7,0.7c0,0,0,0,0,0v0v0.2v2.6c0,0.4,0.3,0,0.8,0h0.2
		c0.4,0,0.8,0.4,0.8,0V3.5h4.3c0,0,0,0,0,0v1.9c0,0.4,0.3,0,0.8,0h0.2c0.4,0,0.8,0.4,0.8,0V2.5C15.8,2.1,15.5,1.7,15.1,1.7z"/>
	<path class="st0" d="M15.7,17.2H9.3c-0.3,0-0.7-0.2-0.8-0.5c-0.2-0.3-0.2-0.8,0-1l4.2-4.9H8.3V8.9h6.4c0.3,0,0.7,0.2,0.8,0.5
		c0.2,0.3,0.2,0.7-0.2,1l-4.2,4.9h4.4v1.8H15.7z"/>
	<path class="st1" d="M22.6,7.6c0-1.1-0.9-2.1-2.1-2.1h-17c-1.1,0-2.1,0.9-2.1,2.1L1,20.2c0,1.1,1,2.1,2.2,2.1h17.8
		c1.2,0,2.2-0.9,2.2-2.1L22.6,7.6z"/>
</g>
</svg>
