<?xml version="1.0" encoding="utf-8"?>
<!-- Generator: Adobe Illustrator 19.0.0, SVG Export Plug-In . SVG Version: 6.00 Build 0)  -->
<svg version="1.1" id="Layer_1" xmlns="http://www.w3.org/2000/svg" xmlns:xlink="http://www.w3.org/1999/xlink" x="0px" y="0px"
	 viewBox="0 0 24 24" style="enable-background:new 0 0 24 24;" xml:space="preserve">
<style type="text/css">
	.st0{fill:#10B9FF;}
	.st1{fill:none;stroke:#10B9FF;stroke-miterlimit:10;}
</style>
<g>
	<g>
		<circle class="st0" cx="6.1" cy="21.9" r="1.6"/>
		<circle class="st0" cx="12.8" cy="21.9" r="1.6"/>
	</g>
	<polygon class="st1" points="15.6,17.2 3.3,17.2 1,7.9 17.9,7.9 	"/>
	<polyline class="st1" points="4.9,19.2 15.4,19.2 18.5,5.4 23.8,3.7 	"/>
</g>
<path class="st0" d="M14.9,12H6.4c-0.5,0-0.9-0.2-1.2-0.7c0-0.5,0-0.9,0.2-1.2L11,3.5H5.1V1h8.5c0.5,0,0.9,0.2,1.2,0.7
	c0,0.5,0,0.9-0.2,1.2L9.1,9.5H15L14.9,12L14.9,12z"/>
</svg>
