<?xml version="1.0" encoding="utf-8"?>
<!-- Generator: Adobe Illustrator 19.0.0, SVG Export Plug-In . SVG Version: 6.00 Build 0)  -->
<svg version="1.1" id="Layer_1" xmlns="http://www.w3.org/2000/svg" xmlns:xlink="http://www.w3.org/1999/xlink" x="0px" y="0px"
	 viewBox="0 0 24 24" style="enable-background:new 0 0 24 24;" xml:space="preserve">
<style type="text/css">
	.st0{fill:#10B9FF;}
</style>
<g>
	<g>
		<g>
			<path class="st0" d="M10.6,17.5l-5.2-3.7v5.5c0,0,4.6,4.4,6.2,4.7c2.5,0.4,8.3-4.7,8.3-4.7v-6.7L10.6,17.5z"/>
			<g>
				<path class="st0" d="M13.6,0L0,7.5l10.5,8.4L24,8.6L13.6,0z M9.6,11.7c-0.4,0-0.7-0.2-0.9-0.5c0-0.4,0-0.7,0.2-0.9L13,5.4H8.7
					V3.6H15c0.4,0,0.7,0.2,0.9,0.5c0,0.4,0,0.7-0.2,0.9l-4.1,4.9H16l-0.1,1.8H9.6z"/>
			</g>
		</g>
	</g>
	<polygon class="st0" points="21.7,14.2 23.5,14.2 22.7,11.7 22.4,11.7 	"/>
	<rect x="22.4" y="8.9" class="st0" width="0.3" height="2.8"/>
</g>
</svg>
