<?xml version="1.0" encoding="utf-8"?>
<!-- Generator: Adobe Illustrator 19.0.0, SVG Export Plug-In . SVG Version: 6.00 Build 0)  -->
<svg version="1.1" id="Layer_1" xmlns="http://www.w3.org/2000/svg" xmlns:xlink="http://www.w3.org/1999/xlink" x="0px" y="0px"
	 viewBox="0 0 24 24" style="enable-background:new 0 0 24 24;" xml:space="preserve">
<style type="text/css">
	.st0{fill:#10B9FF;}
</style>
<g>
	<path class="st0" d="M20.7,17.5H2.1V0.9h18.7v7.6L24,9.3l-3.3,3.7V17.5z M3.1,16.5h16.7v-3.9l2.4-2.7l-2.4-0.6V1.9H3.1V16.5z"/>
</g>
<g>
	<path class="st0" d="M0,4v15.6h11.3l2.8,3.3l1.4-3.3h2.2V4H0z M13.5,16.9H5.2c-0.5,0-0.9-0.2-1.2-0.7c0-0.5,0-0.9,0.2-1.2l5.5-6.4
		H4V6.2h8.3c0.5,0,0.9,0.2,1.2,0.7c0,0.5,0,0.9-0.2,1.2l-5.4,6.4h5.7L13.5,16.9z"/>
</g>
</svg>
