<?xml version="1.0" encoding="utf-8"?>
<!-- Generator: Adobe Illustrator 19.0.0, SVG Export Plug-In . SVG Version: 6.00 Build 0)  -->
<svg version="1.1" id="Layer_1" xmlns="http://www.w3.org/2000/svg" xmlns:xlink="http://www.w3.org/1999/xlink" x="0px" y="0px"
	 viewBox="0 0 24 24" style="enable-background:new 0 0 24 24;" xml:space="preserve">
<style type="text/css">
	.st0{fill:#10B9FF;}
</style>
<path class="st0" d="M12,2.4C12,2.4,12,2.4,12,2.4C11.9,2.4,11.9,2.4,12,2.4c-5.3,0-9.6,4.3-9.6,9.6c0,5.3,4.3,9.6,9.6,9.6
	c0,0,0,0,0,0c0,0,0,0,0,0c0,0,0,0,0,0c2.8,0,5.3-1.2,7.1-3.1c0.1,0,0.1-0.1,0.2-0.1c0,0,0-0.1,0-0.1c1.5-1.7,2.3-3.9,2.3-6.3
	C21.6,6.7,17.3,2.4,12,2.4z M19.6,11h-2.3c0-0.7-0.2-1.4-0.3-2.1C17.5,8.7,18,8.4,18.5,8C19,8.9,19.4,9.9,19.6,11z M17.2,6.5
	c-0.3,0.2-0.6,0.4-1,0.5c-0.3-0.7-0.7-1.4-1.2-2C15.9,5.4,16.6,5.9,17.2,6.5z M8.9,5C8.4,5.6,8.1,6.3,7.7,7C7.4,6.8,7.1,6.6,6.8,6.5
	C7.4,5.9,8.1,5.4,8.9,5z M5.5,8c0.5,0.3,1,0.6,1.5,0.8C6.9,9.6,6.8,10.3,6.7,11H4.4C4.6,9.9,5,8.9,5.5,8z M4.4,13h2.3
	c0.1,0.9,0.2,1.8,0.5,2.7c-0.5,0.2-1,0.5-1.4,0.7C5.1,15.4,4.6,14.3,4.4,13z M7.2,17.9c0.3-0.1,0.5-0.3,0.8-0.4
	c0.3,0.5,0.6,1,0.9,1.4C8.3,18.7,7.7,18.3,7.2,17.9z M11,18.4c-0.4-0.5-0.8-1-1.1-1.5c0.4-0.1,0.7-0.2,1.1-0.2V18.4z M9.4,15.4
	c-0.4,0-0.7-0.2-0.9-0.6c0-0.4,0-0.7,0.2-0.9l4.3-5H8.4V7h6.5c0.4,0,0.7,0.2,0.9,0.6c0,0.4,0,0.7-0.2,0.9l-4.2,5H16l-0.1,1.9H9.4z
	 M13,18.4v-1.7c0.4,0,0.7,0.1,1.1,0.2C13.8,17.4,13.4,17.9,13,18.4z M15.1,19c0.3-0.5,0.7-0.9,0.9-1.4c0.3,0.1,0.5,0.3,0.8,0.4
	C16.3,18.3,15.7,18.7,15.1,19z M18.2,16.4c-0.5-0.3-0.9-0.5-1.4-0.7c0.3-0.9,0.4-1.8,0.5-2.7h2.3C19.4,14.3,18.9,15.4,18.2,16.4z"/>
<polygon class="st0" points="14.6,22.6 19.3,22.6 19.3,24 24,21.3 19.3,18.6 19.3,20 14.6,20 "/>
<g>
	<polygon class="st0" points="9.4,4 4.7,4 4.7,5.4 0,2.7 4.7,0 4.7,1.4 9.4,1.4 	"/>
</g>
</svg>
