<?xml version="1.0" encoding="utf-8"?>
<!-- Generator: Adobe Illustrator 19.0.0, SVG Export Plug-In . SVG Version: 6.00 Build 0)  -->
<svg version="1.1" id="Layer_1" xmlns="http://www.w3.org/2000/svg" xmlns:xlink="http://www.w3.org/1999/xlink" x="0px" y="0px"
	 viewBox="0 0 24 24" style="enable-background:new 0 0 24 24;" xml:space="preserve">
<style type="text/css">
	.st0{fill:#10B9FF;}
</style>
<path class="st0" d="M15.5,14.7H7.9c-0.4,0-0.8-0.2-1-0.6c-0.2-0.4-0.2-1,0-1.2l5-5.8H6.7V4.9h7.6c0.4,0,0.8,0.2,1,0.6
	s0.2,0.8-0.2,1.2l-5,5.8h5.2v2.2H15.5z"/>
<path class="st0" d="M19.6,14.3V1.2h-5.3V0.5H7.9v0.7H2.6v21.7h13.5c0.8,0.7,1.9,1.1,3,1.1c2.7,0,4.9-2.2,4.9-4.9
	C24,16.6,22.1,14.5,19.6,14.3z M3.6,2.2h4.3v0.7h6.4V2.2h4.3v12.1c-2.5,0.3-4.4,2.3-4.4,4.8c0,1,0.3,2,0.9,2.8H3.6V2.2z M22.1,19.5
	h-2.5h-0.7v-0.8v-3.5h0.7v3.6h2.5V19.5z"/>
</svg>
