<?xml version="1.0" encoding="utf-8"?>
<!-- Generator: Adobe Illustrator 19.0.0, SVG Export Plug-In . SVG Version: 6.00 Build 0)  -->
<svg version="1.1" id="Layer_1" xmlns="http://www.w3.org/2000/svg" xmlns:xlink="http://www.w3.org/1999/xlink" x="0px" y="0px"
	 viewBox="0 0 24 24" style="enable-background:new 0 0 24 24;" xml:space="preserve">
<style type="text/css">
	.st0{fill:#10B9FF;}
</style>
<path class="st0" d="M15.7,17.2H9.3c-0.3,0-0.7-0.2-0.8-0.5c-0.2-0.3-0.2-0.8,0-1l4.2-4.9H8.3V8.9h6.4c0.3,0,0.7,0.2,0.8,0.5
	c0.2,0.3,0.2,0.7-0.2,1l-4.2,4.9h4.4v1.8h0.2V17.2z"/>
<path class="st0" d="M23.3,7.6c0-1.5-1.2-2.7-2.8-2.7h-4.4V2.5c-0.3-0.4-0.6-0.8-1-0.8h-0.2H9.1H8.9C8.5,1.7,8.2,2,8.2,2.4v0.2v2.3
	H3.5C2,4.9,0.8,6.1,0.8,7.6L0.4,20.2c0,1.5,1.3,2.8,2.9,2.8H21c1.6,0,2.9-1.2,2.8-2.8L23.3,7.6z M10,3.5h4.3v1.4H10V3.5z M21,21.6
	H3.2c-0.8,0-1.6-0.7-1.6-1.4L2,7.6c0-0.9,0.8-1.5,1.5-1.5h17c0.9,0,1.4,0.8,1.4,1.5l0.6,12.6C22.5,21,21.9,21.6,21,21.6z"/>
</svg>
