<?xml version="1.0" encoding="utf-8"?>
<!-- Generator: Adobe Illustrator 19.0.0, SVG Export Plug-In . SVG Version: 6.00 Build 0)  -->
<svg version="1.1" id="Layer_1" xmlns="http://www.w3.org/2000/svg" xmlns:xlink="http://www.w3.org/1999/xlink" x="0px" y="0px"
	 viewBox="0 0 24 24" style="enable-background:new 0 0 24 24;" xml:space="preserve">
<style type="text/css">
	.st0{fill:#10B9FF;}
</style>
<path class="st0" d="M23.4,15.7v-0.2c0.2-0.1,0.3-0.2,0.3-0.4V15c0-0.2-0.1-0.4-0.3-0.4v-0.4c0-0.6-0.4-1.1-0.9-1.3l-1.3-0.5
	l-2.7-3.9c-0.1-0.2-0.3-0.3-0.6-0.3h-3c-0.3,0-0.6,0.1-0.8,0.3V6.2c0-0.1,0-1.3-0.8-2.1c-0.5-0.5-1.2-0.8-2-0.8H3.2
	c-0.8,0-1.5,0.3-2,0.8C0.4,4.9,0.4,6.2,0.4,6.2v8.3h0.5v1.2c-0.4,0-0.6,0.3-0.6,0.6v0.1c0,0.4,0.3,0.6,0.6,0.6
	c0,0.5,0.4,0.9,0.9,0.9h1.9c0.1-1.4,1.3-2.5,2.7-2.5c1.4,0,2.6,1.1,2.7,2.5h6.6c0.1-1.4,1.3-2.5,2.7-2.5c1.4,0,2.6,1.1,2.7,2.5h1.2
	c0.5,0,0.9-0.4,0.9-0.9c0.4,0,0.6-0.3,0.6-0.6v-0.1C24,15.9,23.7,15.7,23.4,15.7z M1.9,4.8c0.3-0.3,0.7-0.5,1.3-0.5h8.1
	c0.6,0,1,0.2,1.3,0.5c0.5,0.5,0.5,1.4,0.5,1.4v7.3H1.4l0-7.3C1.4,6.2,1.4,5.3,1.9,4.8z M19.2,12.7h-3.8c-0.4,0-0.7-0.3-0.7-0.7v-0.1
	v-2c0-0.4,0.3-0.7,0.7-0.7h1.9c0.1,0,0.2,0.1,0.3,0.1l0.7,1l1.2,1.7c0,0.1,0.1,0.1,0.1,0.2C19.6,12.5,19.4,12.7,19.2,12.7z"/>
<path class="st0" d="M20.8,17.7c-0.1-1.1-1-2-2.2-2c-1.1,0-2.1,0.9-2.2,2c0,0.1,0,0.2,0,0.2c0,1.2,1,2.2,2.2,2.2s2.2-1,2.2-2.2
	C20.9,17.9,20.9,17.8,20.8,17.7z M18.7,18.9c-0.5,0-1-0.4-1-1c0-0.1,0-0.2,0-0.2c0.1-0.4,0.5-0.7,0.9-0.7s0.8,0.3,0.9,0.7
	c0,0.1,0,0.1,0,0.2C19.6,18.5,19.2,18.9,18.7,18.9z"/>
<path class="st0" d="M6.6,15.8c-1.2,0-2.1,0.9-2.2,2c0,0.1,0,0.1,0,0.2c0,1.2,1,2.2,2.2,2.2s2.2-1,2.2-2.2c0-0.1,0-0.1,0-0.2
	C8.7,16.6,7.8,15.8,6.6,15.8z M6.6,18.9c-0.5,0-1-0.4-1-1c0-0.1,0-0.1,0-0.2c0.2-0.4,0.5-0.7,1-0.7s0.8,0.3,0.9,0.8
	c0,0.1,0,0.1,0,0.2C7.6,18.5,7.1,18.9,6.6,18.9z"/>
<path class="st0" d="M10.8,12.8H4.7c-0.3,0-0.6-0.2-0.8-0.5s-0.2-0.8,0-1l4-4.7H3.7V4.9h6.1c0.3,0,0.6,0.2,0.8,0.5s0.2,0.6-0.2,1
	l-4,4.7h4.2v1.8h0.2V12.8z"/>
</svg>
