<?xml version="1.0" encoding="utf-8"?>
<!-- Generator: Adobe Illustrator 19.0.0, SVG Export Plug-In . SVG Version: 6.00 Build 0)  -->
<svg version="1.1" id="Layer_1" xmlns="http://www.w3.org/2000/svg" xmlns:xlink="http://www.w3.org/1999/xlink" x="0px" y="0px"
	 viewBox="0 0 24 24" style="enable-background:new 0 0 24 24;" xml:space="preserve">
<style type="text/css">
	.st0{fill:#10B9FF;}
</style>
<path class="st0" d="M11.9,0c-5.1,0.2,0,7.7,0,7.7C16.4,1.3,13.5,0,11.9,0z M12,3.2c-0.6,0-1.1-0.5-1.1-1.1C10.9,1.4,11.5,1,12,1
	c0.7,0,1.1,0.6,1.1,1.1S12.6,3.2,12,3.2z"/>
<g>
	<g>
		<path class="st0" d="M6.3,8.5V24l11.4-1.9V6.6L6.3,8.5z M16,19L9,20c-0.4,0.1-0.8-0.1-1-0.4c0-0.4,0-0.8,0.2-1l4.6-6L8,13.2v-2
			l7-0.8c0.4-0.1,0.8,0.1,1,0.5c0,0.4,0,0.7-0.2,1l-4.6,5.9L16,17L16,19z"/>
	</g>
	<polygon class="st0" points="0,6.5 0,22 5.8,23.9 5.8,8.4 	"/>
	<polygon class="st0" points="24,8.5 18.2,6.6 18.2,22.1 24,24 	"/>
</g>
</svg>
