<?xml version="1.0" encoding="utf-8"?>
<!-- Generator: Adobe Illustrator 19.0.0, SVG Export Plug-In . SVG Version: 6.00 Build 0)  -->
<svg version="1.1" id="Layer_1" xmlns="http://www.w3.org/2000/svg" xmlns:xlink="http://www.w3.org/1999/xlink" x="0px" y="0px"
	 viewBox="0 0 24 24" style="enable-background:new 0 0 24 24;" xml:space="preserve">
<style type="text/css">
	.st0{fill:none;stroke:#10B9FF;stroke-miterlimit:10;}
	.st1{fill:#10B9FF;}
</style>
<polyline class="st0" points="16.5,22.4 3.1,22.4 3.1,1.7 19.1,1.7 19.1,14.7 "/>
<path class="st1" d="M15.5,14.7H7.9c-0.4,0-0.8-0.2-1-0.6c-0.2-0.4-0.2-1,0-1.2l5-5.8H6.7V4.9h7.6c0.4,0,0.8,0.2,1,0.6
	c0.2,0.4,0.2,0.8-0.2,1.2l-5,5.8h5.2v2.2H15.5z"/>
<rect x="7.9" y="0.5" class="st1" width="6.4" height="2.4"/>
<path class="st1" d="M19.1,24c2.7,0,4.9-2.2,4.9-4.9s-2.2-4.9-4.9-4.9s-4.9,2.2-4.9,4.9S16.5,24,19.1,24z M18.9,18.7v-3.5h0.7v3.6
	h2.5v0.7h-2.5h-0.7V18.7z"/>
</svg>
