<?xml version="1.0" encoding="utf-8"?>
<!-- Generator: Adobe Illustrator 19.0.0, SVG Export Plug-In . SVG Version: 6.00 Build 0)  -->
<svg version="1.1" id="Layer_1" xmlns="http://www.w3.org/2000/svg" xmlns:xlink="http://www.w3.org/1999/xlink" x="0px" y="0px"
	 viewBox="0 0 24 24" style="enable-background:new 0 0 24 24;" xml:space="preserve">
<style type="text/css">
	.st0{fill:#10B9FF;}
</style>
<g>
	<g>
		<circle class="st0" cx="6.1" cy="21.9" r="1.6"/>
		<circle class="st0" cx="12.8" cy="21.9" r="1.6"/>
	</g>
	<path class="st0" d="M23.6,3.2L18.1,5l-0.5,2.4h-6.7l3.7-4.5c0.2-0.3,0.2-0.7,0.2-1.2C14.5,1.2,14.1,1,13.6,1H5.1v2.5H11L7.7,7.4
		H0.4l2.5,10.3h12.3l-0.2,1H4.9v1h10.9l3.1-13.9l5-1.6L23.6,3.2z M15.2,16.7H3.7L1.6,8.4h5.2l-1.4,1.7c-0.2,0.3-0.2,0.7-0.2,1.2
		C5.5,11.8,5.9,12,6.4,12h8.5L15,9.5H9.1L10,8.4h7.2L15.2,16.7z"/>
</g>
</svg>
