<?xml version="1.0" encoding="utf-8"?>
<!-- Generator: Adobe Illustrator 19.0.0, SVG Export Plug-In . SVG Version: 6.00 Build 0)  -->
<svg version="1.1" id="Layer_1" xmlns="http://www.w3.org/2000/svg" xmlns:xlink="http://www.w3.org/1999/xlink" x="0px" y="0px"
	 viewBox="0 0 24 24" style="enable-background:new 0 0 24 24;" xml:space="preserve">
<style type="text/css">
	.st0{fill:#10B9FF;}
	.st1{fill:none;stroke:#10B9FF;stroke-width:0.75;stroke-miterlimit:10;}
</style>
<path class="st0" d="M12.9,16.4H4.4c-0.5,0-0.9-0.2-1.2-0.7c0-0.5,0-0.9,0.2-1.2L9,7.9H3.2V5.4h8.5c0.5,0,0.9,0.2,1.2,0.7
	c0,0.5,0,0.9-0.2,1.2l-5.5,6.6H13L12.9,16.4L12.9,16.4z"/>
<circle class="st0" cx="4" cy="3.1" r="1.1"/>
<circle class="st0" cx="12" cy="3.1" r="1.1"/>
<circle class="st0" cx="16.5" cy="6.5" r="1.1"/>
<circle class="st0" cx="20.5" cy="3.1" r="1.1"/>
<polyline class="st1" points="3.7,3.1 12,3.1 16.4,6.2 20.5,3.1 "/>
<rect x="3.2" y="17.8" class="st0" width="17.8" height="1.4"/>
<rect x="3.2" y="20.3" class="st0" width="17.8" height="1.8"/>
<g>
	<path class="st0" d="M24,24H0V0h24V24z M0.7,23.3h22.5V0.7H0.7V23.3z"/>
</g>
</svg>
