<?xml version="1.0" encoding="utf-8"?>
<!-- Generator: Adobe Illustrator 19.0.0, SVG Export Plug-In . SVG Version: 6.00 Build 0)  -->
<svg version="1.1" id="Layer_1" xmlns="http://www.w3.org/2000/svg" xmlns:xlink="http://www.w3.org/1999/xlink" x="0px" y="0px"
	 viewBox="0 0 24 24" style="enable-background:new 0 0 24 24;" xml:space="preserve">
<style type="text/css">
	.st0{fill:#10B9FF;}
</style>
<path class="st0" d="M9.5,20.6H1.2c-0.5,0-0.9-0.2-1.2-0.7c0-0.5,0-0.9,0.2-1.2l5.5-6.4H0V9.9h8.3c0.5,0,0.9,0.2,1.2,0.7
	c0,0.5,0,0.9-0.2,1.2l-5.4,6.4h5.7L9.5,20.6L9.5,20.6z"/>
<polygon class="st0" points="24,16.8 22.1,14.9 17.1,20 15.1,18 13.2,19.9 17.1,23.8 17.1,23.8 17.1,23.8 "/>
<g>
	<path class="st0" d="M16.3,0h-1.6c-0.3,0-0.5,0.2-0.5,0.5S14.4,1,14.7,1h0.4v1.7h0.8V0.9h0.4c0.3,0,0.5-0.2,0.5-0.5S16.6,0,16.3,0z
		"/>
	<path class="st0" d="M10.5,1.6L9.3,2.7c-0.2,0.2-0.2,0.5,0,0.6c0.2,0.2,0.5,0.2,0.6,0L10.2,3l1.2,1.2L12,3.7l-1.2-1.2l0.3-0.3
		c0.2-0.2,0.2-0.5,0-0.6C10.9,1.4,10.6,1.4,10.5,1.6z"/>
	<path class="st0" d="M16.3,15.7h-1.6c-0.3,0-0.5-0.2-0.5-0.5s0.2-0.5,0.5-0.5h0.4V13h0.8v1.7h0.4c0.3,0,0.5,0.2,0.5,0.5
		S16.6,15.7,16.3,15.7z"/>
	<path class="st0" d="M10.5,14.3l-1.1-1.1c-0.2-0.2-0.2-0.5,0-0.6c0.2-0.2,0.5-0.2,0.6,0l0.3,0.3l1.2-1.2l0.6,0.6l-1.2,1.2l0.3,0.3
		c0.2,0.2,0.2,0.5,0,0.6C10.9,14.5,10.6,14.5,10.5,14.3z"/>
	<path class="st0" d="M7.4,7.1v1.6c0,0.3,0.2,0.5,0.5,0.5c0.3,0,0.4-0.2,0.4-0.5V8.3H10V7.5H8.3V7.1c0-0.3-0.2-0.5-0.5-0.5
		S7.4,6.8,7.4,7.1z"/>
	<path class="st0" d="M21,1.6l1.1,1.1c0.2,0.2,0.2,0.5,0,0.6c-0.2,0.2-0.5,0.2-0.6,0L21.2,3L20,4.3l-0.6-0.6l1.2-1.2l-0.3-0.3
		c-0.2-0.2-0.2-0.5,0-0.6S20.8,1.4,21,1.6z"/>
	<path class="st0" d="M21,14.3l1.1-1.1c0.2-0.2,0.2-0.5,0-0.6c-0.2-0.2-0.5-0.2-0.6,0l-0.3,0.3L20,11.6l-0.6,0.6l1.2,1.2l-0.3,0.3
		c-0.2,0.2-0.2,0.5,0,0.6C20.5,14.5,20.8,14.5,21,14.3z"/>
	<path class="st0" d="M24,7.1v1.6c0,0.3-0.2,0.5-0.5,0.5S23.1,9,23.1,8.7V8.3h-1.7V7.5h1.7V7.1c0-0.3,0.2-0.5,0.5-0.5S24,6.8,24,7.1
		z"/>
	<path class="st0" d="M15.5,2c-3.3,0-5.9,2.6-5.9,5.9s2.6,5.9,5.9,5.9s5.9-2.6,5.9-5.9S18.8,2,15.5,2z M14,6.6
		c-0.7,0-1.3-0.6-1.3-1.3C12.8,4.6,13.3,4,14,4s1.3,0.6,1.3,1.3S14.7,6.6,14,6.6z M17.4,11.6c-0.3,0-0.6-0.3-0.6-0.6
		s0.3-0.6,0.6-0.6S18,10.7,18,11S17.7,11.6,17.4,11.6z"/>
</g>
</svg>
