<?xml version="1.0" encoding="utf-8"?>
<!-- Generator: Adobe Illustrator 19.0.0, SVG Export Plug-In . SVG Version: 6.00 Build 0)  -->
<svg version="1.1" id="Layer_1" xmlns="http://www.w3.org/2000/svg" xmlns:xlink="http://www.w3.org/1999/xlink" x="0px" y="0px"
	 viewBox="0 0 24 24" style="enable-background:new 0 0 24 24;" xml:space="preserve">
<style type="text/css">
	.st0{fill:#10B9FF;}
</style>
<g>
	<path class="st0" d="M17.9,0H3.7H2.6v21.5V24h17.8h1V3.7L17.9,0z M19.3,21.8H4.7V2.2h12V5h2.6V21.8z"/>
	<rect x="13.5" y="3.5" class="st0" width="1.8" height="5.4"/>
	<rect x="10.1" y="5.4" class="st0" width="1.8" height="3.5"/>
	<rect x="6.7" y="7.1" class="st0" width="1.8" height="1.8"/>
	<path class="st0" d="M15.4,20.5H7.7c-0.4,0-0.8-0.2-1.1-0.6c0-0.4,0-0.8,0.2-1.1l5.1-6H6.6v-2.3h7.7c0.4,0,0.8,0.2,1.1,0.6
		c0,0.4,0,0.8-0.2,1.1l-5,6h5.3L15.4,20.5L15.4,20.5z"/>
</g>
</svg>
