<?xml version="1.0" encoding="utf-8"?>
<!-- Generator: Adobe Illustrator 19.0.0, SVG Export Plug-In . SVG Version: 6.00 Build 0)  -->
<svg version="1.1" id="Layer_1" xmlns="http://www.w3.org/2000/svg" xmlns:xlink="http://www.w3.org/1999/xlink" x="0px" y="0px"
	 viewBox="0 0 24 24" style="enable-background:new 0 0 24 24;" xml:space="preserve">
<style type="text/css">
	.st0{fill:#10B9FF;}
</style>
<g>
	<path class="st0" d="M18,8.4H1c-0.6,0-1,0.4-1,1v12c0,0.6,0.4,1,1,1h17c0.6,0,1-0.4,1-1v-12C19,8.9,18.6,8.4,18,8.4z M13,19.4H7
		c-0.4,0-0.7-0.2-0.9-0.6c-0.2-0.4-0.1-0.8,0.1-1.1l3.6-4.4H6v-2h6c0.4,0,0.7,0.2,0.9,0.6c0.2,0.4,0.1,0.8-0.1,1.1l-3.6,4.4H13V19.4
		z"/>
	<g>
		<path class="st0" d="M23,21.4c-0.3,0-0.5-0.1-0.7-0.3l-5-5c-0.4-0.4-0.4-1,0-1.4l5-5c0.3-0.3,0.7-0.4,1.1-0.2S24,10,24,10.4v10
			c0,0.4-0.2,0.8-0.6,0.9C23.3,21.3,23.1,21.4,23,21.4z M19.4,15.4l2.6,2.6v-5.2L19.4,15.4z"/>
	</g>
	<g>
		<path class="st0" d="M4.7,8.8C2.7,8.8,1,7.1,1,5.1c0-2,1.6-3.6,3.6-3.6s3.6,1.6,3.6,3.6C8.3,7.1,6.7,8.8,4.7,8.8z M4.7,3.5
			C3.8,3.5,3,4.2,3,5.1s0.7,1.6,1.6,1.6S6.3,6,6.3,5.1S5.6,3.5,4.7,3.5z"/>
	</g>
	<g>
		<path class="st0" d="M14.2,8.8c-2,0-3.6-1.6-3.6-3.6c0-2,1.6-3.6,3.6-3.6c2,0,3.6,1.6,3.6,3.6C17.8,7.1,16.2,8.8,14.2,8.8z
			 M14.2,3.5c-0.9,0-1.6,0.7-1.6,1.6s0.7,1.6,1.6,1.6c0.9,0,1.6-0.7,1.6-1.6S15.1,3.5,14.2,3.5z"/>
	</g>
</g>
</svg>
