<?xml version="1.0" encoding="utf-8"?>
<!-- Generator: Adobe Illustrator 19.0.0, SVG Export Plug-In . SVG Version: 6.00 Build 0)  -->
<svg version="1.1" id="Layer_1" xmlns="http://www.w3.org/2000/svg" xmlns:xlink="http://www.w3.org/1999/xlink" x="0px" y="0px"
	 viewBox="0 0 24 24" style="enable-background:new 0 0 24 24;" xml:space="preserve">
<style type="text/css">
	.st0{fill:#10B9FF;}
	.st1{fill-rule:evenodd;clip-rule:evenodd;fill:none;stroke:#10B9FF;stroke-width:1.3;stroke-miterlimit:10;}
</style>
<g>
	<path class="st0" d="M17.2,23.3H8.9c-0.4,0-0.9-0.2-1.1-0.7c-0.2-0.4-0.2-1.1,0-1.3l5.4-6.3H7.6v-2.4h8.3c0.4,0,0.9,0.2,1.1,0.7
		c0.2,0.4,0.2,0.9-0.2,1.3l-5.4,6.3h5.6v2.4H17.2z"/>
</g>
<g>
	<path class="st0" d="M11.9,2.4c0,0-4.9,7.3,0,7.5C13.5,9.9,16.3,8.6,11.9,2.4z M13.1,7.8c0,0.5-0.4,1.1-1.1,1.1
		c-0.5,0-1.1-0.4-1.1-1.1c0-0.6,0.5-1.1,1.1-1.1S13.1,7.3,13.1,7.8z"/>
	<g>
		<path class="st1" d="M20,11.1l3,0.1C22.6,5.5,17.8,0.9,12,0.9S1.4,5.5,1,11.2l3-0.1"/>
	</g>
	<line class="st1" x1="4.7" y1="3.7" x2="6.6" y2="6.1"/>
	<line class="st1" x1="17.5" y1="6.1" x2="19.3" y2="3.7"/>
</g>
</svg>
