<?xml version="1.0" encoding="utf-8"?>
<!-- Generator: Adobe Illustrator 19.0.0, SVG Export Plug-In . SVG Version: 6.00 Build 0)  -->
<svg version="1.1" id="Layer_1" xmlns="http://www.w3.org/2000/svg" xmlns:xlink="http://www.w3.org/1999/xlink" x="0px" y="0px"
	 viewBox="0 0 24 24" style="enable-background:new 0 0 24 24;" xml:space="preserve">
<style type="text/css">
	.st0{fill:#10B9FF;}
</style>
<path class="st0" d="M17.2,23.3H8.9c-0.4,0-0.9-0.2-1.1-0.7c-0.2-0.4-0.2-1.1,0-1.3l5.4-6.3H7.6v-2.4h8.3c0.4,0,0.9,0.2,1.1,0.7
	c0.2,0.4,0.2,0.9-0.2,1.3l-5.4,6.3H17v2.4C17,23.3,17.2,23.3,17.2,23.3z"/>
<path class="st0" d="M11.9,2.4c0,0-4.9,7.3,0,7.5C13.5,9.9,16.3,8.6,11.9,2.4z M13.1,7.8c0,0.5-0.4,1.1-1.1,1.1
	c-0.5,0-1.1-0.4-1.1-1.1c0-0.6,0.5-1.1,1.1-1.1S13.1,7.3,13.1,7.8z"/>
<path class="st0" d="M20,11.7l3.7,0.1l-0.1-0.7C23.2,5,18.1,0.3,12,0.3C5.9,0.3,0.8,5,0.4,11.2l-0.1,0.7L4,11.7l0-1.3l-2.3,0.1
	C2,8.2,3.1,6.2,4.6,4.7l1.5,1.8l1-0.8L5.6,3.8c1.8-1.4,4-2.2,6.4-2.2c2.4,0,4.6,0.8,6.4,2.3L17,5.7l1,0.8l1.4-1.8
	c1.5,1.6,2.6,3.6,2.9,5.9L20,10.5L20,11.7z"/>
</svg>
